<svg xmlns="http://www.w3.org/2000/svg" version="1.1" xmlns:xlink="http://www.w3.org/1999/xlink" xmlns:svgjs="http://svgjs.com/svgjs" width="1000" height="1000"><rect width="1000" height="1000" rx="200" ry="200" fill="#ffffff"></rect><g transform="matrix(2,0,0,2,100,100)"><svg xmlns="http://www.w3.org/2000/svg" version="1.1" xmlns:xlink="http://www.w3.org/1999/xlink" xmlns:svgjs="http://svgjs.com/svgjs" width="400" height="400"><svg id="svg" version="1.1" xmlns="http://www.w3.org/2000/svg" xmlns:xlink="http://www.w3.org/1999/xlink" width="400" height="400" viewBox="0, 0, 400,400"><g id="svgg"><path id="path0" d="M50.550 25.612 C 43.703 25.765,37.918 26.003,37.696 26.141 C 36.856 26.660,36.807 33.315,36.607 174.400 C 36.456 280.311,36.267 322.264,35.901 331.200 C 34.986 353.497,35.446 376.489,36.880 380.136 C 37.309 381.226,37.401 381.260,39.163 380.966 C 41.429 380.589,42.359 380.594,51.600 381.029 C 66.968 381.752,70.014 381.426,70.961 378.957 C 71.569 377.373,71.220 101.455,70.607 99.200 C 69.459 94.973,70.721 92.220,74.479 90.760 C 77.549 89.567,82.500 91.459,84.000 94.400 C 84.415 95.213,85.201 96.170,85.747 96.528 C 86.293 96.886,86.866 97.579,87.021 98.068 C 87.302 98.953,90.592 103.392,92.040 104.840 C 92.458 105.258,92.800 105.825,92.800 106.100 C 92.800 106.375,93.430 107.103,94.200 107.717 C 94.970 108.331,95.600 108.993,95.600 109.186 C 95.600 109.380,96.095 110.081,96.700 110.743 C 98.887 113.139,99.894 114.629,100.386 116.200 C 100.662 117.080,101.453 118.356,102.144 119.035 C 103.540 120.407,107.539 124.907,108.895 126.630 C 109.376 127.241,110.158 128.161,110.634 128.674 C 111.109 129.187,111.725 130.418,112.003 131.409 C 112.352 132.656,113.231 133.980,114.854 135.706 C 116.144 137.078,117.875 139.068,118.700 140.128 C 119.525 141.189,121.010 142.901,122.001 143.934 C 122.991 144.966,124.467 147.077,125.280 148.625 C 126.094 150.173,127.128 151.773,127.579 152.181 C 128.031 152.590,128.400 153.153,128.400 153.433 C 128.400 153.713,128.857 154.302,129.416 154.741 C 131.186 156.133,136.329 162.257,136.923 163.679 C 137.237 164.430,137.968 165.556,138.547 166.181 C 139.126 166.806,139.600 167.543,139.600 167.820 C 139.600 168.386,146.748 176.800,147.229 176.800 C 147.399 176.800,147.750 177.442,148.009 178.227 C 148.268 179.011,148.874 179.833,149.355 180.052 C 149.837 180.272,151.034 181.715,152.016 183.260 C 153.783 186.043,155.641 188.496,158.030 191.200 C 161.293 194.895,164.023 198.723,164.248 199.921 C 164.551 201.528,168.424 206.585,169.961 207.380 C 171.451 208.150,175.556 213.221,176.030 214.876 C 176.371 216.067,180.469 221.427,183.010 224.004 C 183.554 224.557,184.000 225.225,184.000 225.489 C 184.000 225.753,184.675 226.669,185.500 227.524 C 186.325 228.379,187.863 230.456,188.919 232.139 C 189.974 233.823,190.988 235.200,191.173 235.200 C 191.358 235.200,191.797 235.807,192.148 236.548 C 193.370 239.122,198.329 238.839,199.218 236.145 C 199.707 234.664,204.289 228.897,206.849 226.540 C 207.216 226.202,208.245 224.775,210.192 221.902 C 210.751 221.077,211.741 219.417,212.393 218.212 C 213.045 217.007,213.934 215.666,214.368 215.232 C 214.802 214.798,215.460 213.857,215.831 213.140 C 216.201 212.424,218.105 210.316,220.061 208.456 C 222.017 206.595,224.108 204.216,224.709 203.169 C 225.309 202.122,226.921 199.765,228.292 197.933 C 229.663 196.100,231.193 194.000,231.692 193.267 C 232.191 192.534,233.140 191.353,233.800 190.643 C 234.880 189.480,235.938 187.910,238.125 184.222 C 238.523 183.550,239.198 182.701,239.625 182.336 C 240.051 181.971,240.400 181.505,240.400 181.302 C 240.400 181.098,241.075 180.299,241.900 179.526 C 242.725 178.753,244.114 177.093,244.987 175.837 C 245.860 174.581,247.703 172.348,249.082 170.876 C 250.720 169.129,251.679 167.738,251.845 166.870 C 252.100 165.541,255.413 161.506,261.675 154.899 C 262.145 154.403,262.837 153.311,263.212 152.472 C 263.588 151.633,264.774 149.818,265.848 148.439 C 266.921 147.060,268.018 145.542,268.284 145.066 C 268.551 144.590,269.110 143.922,269.528 143.582 C 269.945 143.242,270.785 142.162,271.393 141.182 C 272.001 140.202,272.848 139.017,273.274 138.548 C 273.700 138.080,274.466 136.916,274.977 135.961 C 276.086 133.887,278.845 130.474,282.400 126.778 C 287.334 121.648,288.000 120.905,288.000 120.529 C 288.000 120.322,288.522 119.618,289.161 118.965 C 289.799 118.312,290.523 117.030,290.768 116.117 C 291.245 114.348,293.462 111.386,295.043 110.407 C 295.569 110.081,296.000 109.683,296.000 109.521 C 296.000 109.360,296.572 108.577,297.270 107.781 C 297.969 106.986,298.931 105.494,299.409 104.467 C 300.719 101.655,303.612 97.590,305.853 95.416 C 306.542 94.747,307.403 93.613,307.766 92.895 C 309.340 89.783,314.906 88.622,317.323 90.901 C 319.747 93.187,319.607 84.565,319.707 238.086 C 319.793 368.927,319.850 379.621,320.460 380.231 C 321.507 381.278,349.895 381.612,352.525 380.608 L 354.333 379.917 354.487 377.458 C 354.572 376.106,354.632 297.134,354.621 201.965 L 354.600 28.929 352.933 27.328 L 351.266 25.726 336.103 25.444 L 320.940 25.161 318.370 26.318 C 316.956 26.955,314.945 27.789,313.900 28.171 C 312.855 28.553,312.000 29.025,312.000 29.219 C 312.000 29.413,311.484 30.163,310.853 30.886 C 309.823 32.065,308.977 33.485,306.691 37.866 C 306.301 38.614,305.532 39.431,304.981 39.681 C 304.431 39.932,303.881 40.534,303.760 41.018 C 303.638 41.502,301.752 43.659,299.569 45.810 C 297.386 47.962,295.599 50.009,295.598 50.361 C 295.590 52.489,294.604 54.096,291.094 57.699 C 285.789 63.143,284.390 64.962,283.807 67.175 C 283.328 68.989,282.172 70.440,277.624 74.940 C 277.435 75.127,276.980 75.577,276.614 75.940 C 275.470 77.074,274.098 79.277,272.410 82.694 C 271.428 84.683,270.295 86.348,269.552 86.894 C 268.876 87.393,268.045 88.340,267.706 89.000 C 267.368 89.660,265.426 91.910,263.391 94.000 C 261.355 96.090,259.306 98.565,258.837 99.500 C 258.368 100.435,257.805 101.200,257.587 101.200 C 257.369 101.200,256.737 102.223,256.184 103.474 C 255.451 105.132,254.231 106.678,251.685 109.174 C 249.463 111.353,247.554 113.692,246.437 115.600 C 243.263 121.024,241.985 122.824,240.986 123.279 C 240.444 123.526,240.000 123.974,240.000 124.273 C 240.000 124.573,239.308 125.579,238.463 126.509 C 236.535 128.630,232.918 133.843,231.600 136.401 C 231.050 137.469,230.075 138.752,229.433 139.253 C 226.491 141.548,220.662 148.674,220.066 150.704 C 219.791 151.641,219.078 152.952,218.483 153.618 C 217.887 154.284,216.860 155.481,216.200 156.280 C 215.540 157.078,214.436 158.300,213.747 158.994 C 213.058 159.689,212.183 160.860,211.802 161.597 C 211.421 162.334,209.554 164.537,207.654 166.494 C 205.754 168.451,203.874 170.803,203.476 171.721 C 202.548 173.860,201.778 174.693,199.800 175.697 C 198.920 176.144,197.736 176.897,197.168 177.372 C 194.825 179.330,191.812 177.687,187.058 171.858 C 185.388 169.811,182.800 166.141,182.800 165.821 C 182.800 165.403,177.951 159.200,177.624 159.200 C 177.434 159.200,176.904 158.615,176.446 157.900 C 175.988 157.185,174.984 155.790,174.215 154.800 C 173.445 153.810,172.516 152.460,172.149 151.800 C 171.783 151.140,170.789 149.810,169.941 148.844 C 169.094 147.878,168.400 146.868,168.400 146.600 C 168.400 146.332,166.600 144.297,164.400 142.078 C 162.200 139.860,160.400 137.928,160.400 137.785 C 160.400 137.643,159.759 136.688,158.975 135.663 C 158.192 134.638,156.661 132.450,155.573 130.800 C 151.630 124.819,150.807 123.745,147.639 120.435 C 145.505 118.207,144.186 116.451,143.735 115.235 C 143.360 114.226,142.441 112.680,141.694 111.800 C 139.759 109.523,138.130 107.587,136.979 106.200 C 136.432 105.540,135.358 104.258,134.592 103.352 C 133.827 102.446,132.848 100.907,132.417 99.932 C 131.986 98.957,130.180 96.639,128.404 94.780 C 126.628 92.921,124.745 90.579,124.219 89.575 C 123.693 88.571,122.954 87.494,122.577 87.181 C 121.981 86.686,120.754 85.009,119.401 82.840 C 116.547 78.266,115.136 76.342,113.650 75.000 C 111.598 73.147,110.532 72.051,108.942 70.158 C 108.314 69.411,107.145 68.106,106.345 67.260 C 105.545 66.413,104.764 65.148,104.611 64.449 C 104.240 62.763,102.306 59.942,99.500 57.000 C 98.223 55.660,96.908 53.805,96.524 52.800 C 95.698 50.636,93.920 48.027,90.527 44.000 C 87.540 40.455,87.129 39.991,86.274 39.200 C 85.918 38.870,85.287 38.240,84.873 37.800 C 84.459 37.360,83.778 36.710,83.360 36.356 C 81.837 35.067,80.445 33.148,79.976 31.691 C 79.345 29.731,78.965 29.298,77.027 28.326 C 76.132 27.877,75.040 27.201,74.600 26.823 C 74.160 26.445,73.059 25.925,72.154 25.668 C 70.417 25.174,70.138 25.174,50.550 25.612 " stroke="none" fill="#60c2cb" fill-rule="evenodd"></path><path id="path1" d="M36.748 22.595 C 34.177 24.013,34.375 15.160,34.189 136.761 C 34.021 246.115,33.517 314.261,32.792 325.800 C 32.584 329.100,32.211 334.680,31.961 338.200 C 30.661 356.552,32.478 379.707,35.423 382.300 L 36.445 383.200 53.522 383.198 C 71.088 383.195,73.235 383.029,73.994 381.612 C 74.449 380.762,74.623 102.757,74.171 98.348 C 73.907 95.775,73.917 95.741,75.213 94.651 C 77.240 92.945,81.950 94.154,82.548 96.533 C 82.997 98.323,87.600 104.640,90.612 107.600 C 92.291 109.250,93.945 111.140,94.289 111.800 C 94.632 112.460,95.355 113.530,95.896 114.177 C 96.436 114.825,97.298 116.303,97.811 117.463 C 98.403 118.801,99.910 120.782,101.938 122.886 C 103.695 124.708,105.838 127.100,106.700 128.200 C 107.562 129.300,108.566 130.447,108.932 130.748 C 109.298 131.049,109.859 132.177,110.179 133.254 C 110.811 135.383,112.583 137.627,117.850 142.969 C 121.368 146.538,121.906 147.324,122.566 149.864 C 122.984 151.472,127.801 157.179,132.056 161.108 C 132.970 161.952,133.831 163.327,134.370 164.805 C 134.841 166.098,135.855 167.932,136.623 168.878 C 137.390 169.825,138.959 171.765,140.109 173.188 C 141.259 174.611,142.982 176.501,143.938 177.388 C 144.893 178.275,145.948 179.540,146.282 180.200 C 147.986 183.570,150.979 187.635,154.300 191.089 C 156.335 193.206,158.000 195.080,158.000 195.255 C 158.000 195.429,158.536 196.183,159.191 196.929 C 159.846 197.675,160.936 199.526,161.614 201.042 C 162.756 203.598,163.544 204.592,168.038 209.144 C 170.459 211.595,173.461 215.719,173.973 217.295 C 174.257 218.170,175.897 220.387,177.929 222.642 C 179.838 224.760,181.850 227.081,182.400 227.799 C 182.950 228.517,183.877 229.711,184.461 230.452 C 185.045 231.193,185.747 232.560,186.021 233.489 C 186.391 234.742,187.331 235.967,189.658 238.232 L 192.795 241.285 195.971 241.141 C 199.918 240.961,201.007 240.251,202.400 236.946 C 202.950 235.642,204.030 233.791,204.800 232.834 C 206.776 230.377,211.133 225.550,212.233 224.600 C 212.742 224.160,213.547 222.921,214.022 221.846 C 215.410 218.705,218.144 214.924,221.693 211.236 C 224.871 207.934,230.400 200.407,230.400 199.383 C 230.400 199.112,231.229 198.014,232.242 196.945 C 238.246 190.608,240.794 187.342,241.631 184.911 C 242.208 183.234,242.969 182.100,244.514 180.616 C 248.862 176.441,253.566 170.786,253.821 169.428 C 254.077 168.065,256.696 164.586,260.144 161.030 C 263.377 157.695,265.453 155.096,266.397 153.200 C 266.890 152.210,267.574 151.081,267.916 150.691 C 268.259 150.302,269.003 149.181,269.570 148.202 C 270.136 147.223,272.022 144.963,273.761 143.181 C 276.334 140.542,277.094 139.464,277.851 137.378 C 278.609 135.290,279.400 134.169,282.135 131.308 C 290.252 122.819,293.133 119.320,293.769 117.178 C 294.250 115.560,295.113 114.315,297.746 111.448 C 301.515 107.341,304.496 103.192,305.482 100.679 C 306.849 97.195,311.944 92.950,314.241 93.381 C 317.275 93.950,316.976 79.257,317.200 238.886 C 317.391 375.157,317.432 381.604,318.114 382.286 C 318.774 382.946,320.160 383.008,336.598 383.112 C 356.493 383.237,356.861 383.196,357.341 380.795 C 357.928 377.858,357.632 28.850,357.041 27.436 C 356.733 26.699,355.367 25.169,354.004 24.035 L 351.527 21.974 335.408 22.087 L 319.289 22.200 317.473 23.504 C 316.474 24.222,315.059 24.922,314.329 25.061 C 310.961 25.702,306.333 30.407,305.570 33.965 C 305.160 35.879,304.720 36.453,299.935 41.320 C 294.460 46.891,293.849 47.719,293.488 50.060 C 293.253 51.587,292.023 53.057,285.439 59.682 C 282.803 62.334,282.118 63.302,281.317 65.509 C 280.789 66.965,279.835 68.706,279.198 69.378 C 272.404 76.547,270.114 79.455,269.611 81.554 C 269.059 83.856,268.552 84.495,261.965 91.200 C 257.657 95.584,255.033 99.017,253.618 102.118 C 252.861 103.776,251.553 105.552,249.676 107.469 C 245.758 111.470,242.814 115.374,241.966 117.694 C 241.121 120.004,241.138 119.981,237.000 124.179 C 233.093 128.142,230.886 131.175,230.159 133.582 C 229.738 134.976,228.760 136.268,225.967 139.120 C 220.368 144.838,218.494 147.121,217.744 149.143 C 217.364 150.165,216.367 151.761,215.527 152.691 C 214.687 153.621,214.000 154.534,214.000 154.719 C 214.000 154.905,212.723 156.394,211.162 158.028 C 204.782 164.710,202.511 167.535,202.051 169.363 C 200.218 176.641,188.971 173.996,186.096 165.610 C 185.346 163.424,184.593 162.317,181.696 159.138 C 175.633 152.485,175.125 151.852,174.205 149.803 C 173.192 147.544,169.670 142.987,166.155 139.388 C 161.818 134.947,159.718 132.222,158.303 129.200 C 157.262 126.977,156.083 125.355,153.749 122.939 C 148.714 117.727,146.896 115.441,146.442 113.756 C 145.879 111.666,144.937 110.410,140.200 105.436 C 137.551 102.654,134.960 99.118,134.052 97.043 C 133.253 95.220,129.640 90.882,125.051 86.236 C 123.643 84.812,122.874 83.587,122.285 81.832 C 121.409 79.226,120.053 77.358,116.111 73.330 C 110.148 67.236,106.795 63.133,106.357 61.394 C 105.939 59.733,105.023 58.503,100.695 53.788 C 99.480 52.463,98.577 51.005,98.201 49.756 C 97.608 47.787,95.561 44.886,92.600 41.818 C 84.287 33.204,83.520 32.307,82.910 30.484 C 81.946 27.601,80.889 26.394,78.233 25.143 C 76.895 24.513,75.292 23.593,74.671 23.099 C 73.215 21.939,38.767 21.482,36.748 22.595 M74.674 24.456 C 75.293 25.037,76.520 25.875,77.400 26.319 C 79.460 27.359,80.966 29.000,81.653 30.955 C 82.209 32.536,83.396 33.933,89.800 40.549 C 92.832 43.681,95.253 46.594,96.465 48.568 C 96.611 48.806,97.022 49.832,97.379 50.850 C 97.956 52.494,99.701 54.747,103.355 58.565 C 103.991 59.229,104.869 60.835,105.308 62.134 C 105.951 64.039,106.742 65.163,109.393 67.948 C 118.768 77.791,120.673 80.139,121.602 82.988 C 122.048 84.354,124.567 87.517,128.818 92.046 C 130.816 94.176,132.335 96.293,133.531 98.615 C 134.206 99.927,135.493 101.810,136.390 102.800 C 142.637 109.691,144.620 112.222,145.146 113.979 C 145.603 115.502,148.311 119.079,151.210 121.986 C 153.761 124.545,157.197 129.070,157.707 130.543 C 158.394 132.528,160.766 135.556,164.797 139.596 C 168.136 142.943,170.453 145.921,172.676 149.724 C 173.987 151.967,176.874 155.603,181.494 160.830 C 184.043 163.713,184.927 165.031,185.398 166.652 C 185.774 167.945,186.412 169.066,187.066 169.580 C 187.648 170.038,188.551 170.991,189.073 171.699 C 192.969 176.980,201.681 175.706,202.990 169.663 C 203.250 168.464,209.600 160.875,212.583 158.200 C 213.073 157.760,214.022 156.590,214.691 155.600 C 215.360 154.610,216.312 153.440,216.808 153.000 C 217.304 152.560,218.232 151.042,218.870 149.628 C 220.096 146.913,221.147 145.609,226.790 139.800 C 229.370 137.144,230.477 135.675,231.010 134.200 C 231.407 133.100,232.119 131.750,232.593 131.200 C 233.067 130.650,233.772 129.689,234.159 129.065 C 234.547 128.441,236.423 126.312,238.329 124.334 C 240.234 122.357,242.050 120.077,242.363 119.269 C 243.531 116.255,247.788 110.654,252.265 106.241 C 253.181 105.339,254.404 103.645,254.983 102.477 C 257.118 98.175,260.638 93.885,268.177 86.400 C 269.083 85.501,269.897 84.081,270.454 82.431 C 271.311 79.890,273.218 77.431,280.208 69.859 C 281.194 68.791,282.002 67.711,282.004 67.459 C 282.013 66.435,284.063 62.682,285.289 61.444 C 291.766 54.910,293.978 52.413,294.210 51.373 C 294.893 48.312,295.432 47.528,300.214 42.642 C 305.411 37.330,306.154 36.320,306.596 33.962 C 307.020 31.702,312.043 26.678,314.492 26.066 C 315.533 25.805,317.233 25.054,318.270 24.396 L 320.157 23.200 335.778 23.216 L 351.400 23.233 353.043 24.720 C 353.946 25.538,355.072 26.965,355.545 27.893 L 356.405 29.579 356.303 204.689 C 356.195 388.518,356.265 381.009,354.640 382.094 C 354.057 382.483,320.337 382.475,319.725 382.086 C 318.225 381.132,318.255 383.799,318.142 239.200 C 318.082 162.090,317.924 98.064,317.790 96.921 C 317.300 92.722,314.135 90.709,311.158 92.703 C 309.444 93.850,305.216 98.274,304.682 99.478 C 303.393 102.385,299.434 107.841,295.307 112.398 C 294.376 113.426,293.144 115.332,292.569 116.634 C 291.305 119.495,289.413 121.933,284.400 127.165 C 279.051 132.746,277.277 134.985,276.990 136.511 C 276.821 137.414,275.476 139.290,272.771 142.394 C 270.587 144.900,268.800 147.083,268.800 147.244 C 268.800 147.406,268.335 148.091,267.766 148.767 C 267.198 149.443,266.236 150.903,265.630 152.011 C 264.436 154.194,261.348 158.213,259.356 160.175 C 255.944 163.535,253.576 166.617,252.787 168.728 C 252.321 169.973,251.433 171.444,250.815 171.996 C 250.197 172.548,248.477 174.440,246.994 176.200 C 245.511 177.960,243.691 179.940,242.951 180.600 C 242.211 181.260,241.341 182.567,241.019 183.504 C 240.289 185.625,238.804 187.781,235.538 191.458 C 231.556 195.943,228.210 200.440,225.312 205.200 C 224.710 206.190,222.761 208.440,220.982 210.200 C 219.203 211.960,217.405 213.940,216.986 214.600 C 216.566 215.260,215.745 216.430,215.159 217.200 C 214.574 217.970,213.773 219.470,213.380 220.534 C 212.883 221.879,211.621 223.569,209.241 226.077 C 207.357 228.061,205.556 230.071,205.237 230.542 C 204.919 231.014,204.077 232.058,203.365 232.862 C 202.653 233.666,201.720 235.106,201.290 236.062 C 200.039 238.846,198.881 239.653,195.788 239.902 L 193.122 240.116 190.367 237.278 C 188.533 235.388,187.360 233.776,186.857 232.454 C 185.927 230.005,184.941 228.752,177.101 220.051 C 176.433 219.309,175.551 217.821,175.142 216.744 C 174.265 214.436,171.888 211.411,167.483 207.000 C 164.971 204.484,163.950 203.094,162.709 200.498 C 161.840 198.682,160.812 196.972,160.424 196.698 C 160.036 196.424,159.439 195.660,159.096 195.000 C 158.754 194.340,156.916 192.180,155.012 190.200 C 153.109 188.220,151.181 185.880,150.729 185.000 C 150.277 184.120,149.647 183.104,149.329 182.742 C 149.011 182.380,148.177 181.172,147.476 180.058 C 146.774 178.944,144.580 176.246,142.600 174.061 C 138.214 169.221,136.757 167.233,135.596 164.503 C 135.106 163.350,134.051 161.814,133.252 161.090 C 132.453 160.365,131.530 159.394,131.200 158.930 C 130.870 158.467,129.068 156.389,127.194 154.312 C 124.584 151.417,123.625 150.030,123.086 148.368 C 122.497 146.551,121.516 145.262,117.016 140.400 C 112.904 135.957,111.551 134.226,111.235 133.000 C 110.839 131.463,107.060 126.352,105.024 124.600 C 102.953 122.817,99.839 118.878,98.970 116.940 C 98.461 115.806,97.534 114.276,96.909 113.540 C 96.284 112.803,95.303 111.480,94.729 110.600 C 94.154 109.720,92.540 107.847,91.142 106.438 C 88.409 103.684,85.429 99.735,83.824 96.739 C 79.972 89.553,71.572 91.669,72.991 99.469 C 74.091 105.518,73.731 378.359,72.620 380.512 C 72.191 381.344,71.471 382.099,71.020 382.190 C 68.793 382.640,62.577 382.725,50.222 382.475 L 36.643 382.200 35.952 381.000 C 33.418 376.604,32.407 350.736,33.974 330.400 C 34.673 321.320,35.196 249.767,35.381 137.754 C 35.580 16.833,35.420 24.547,37.757 23.585 C 38.221 23.394,46.463 23.274,56.074 23.319 L 73.548 23.400 74.674 24.456 " stroke="none" fill="#acd7db" fill-rule="evenodd"></path><path id="path2" d="M37.757 23.585 C 35.420 24.547,35.580 16.833,35.381 137.754 C 35.196 249.767,34.673 321.320,33.974 330.400 C 32.407 350.736,33.418 376.604,35.952 381.000 L 36.643 382.200 50.222 382.475 C 62.577 382.725,68.793 382.640,71.020 382.190 C 71.471 382.099,72.191 381.344,72.620 380.512 C 73.731 378.359,74.091 105.518,72.991 99.469 C 71.572 91.669,79.972 89.553,83.824 96.739 C 85.429 99.735,88.409 103.684,91.142 106.438 C 92.540 107.847,94.154 109.720,94.729 110.600 C 95.303 111.480,96.284 112.803,96.909 113.540 C 97.534 114.276,98.461 115.806,98.970 116.940 C 99.839 118.878,102.953 122.817,105.024 124.600 C 107.060 126.352,110.839 131.463,111.235 133.000 C 111.551 134.226,112.904 135.957,117.016 140.400 C 121.516 145.262,122.497 146.551,123.086 148.368 C 123.625 150.030,124.584 151.417,127.194 154.312 C 129.068 156.389,130.870 158.467,131.200 158.930 C 131.530 159.394,132.453 160.365,133.252 161.090 C 134.051 161.814,135.106 163.350,135.596 164.503 C 136.757 167.233,138.214 169.221,142.600 174.061 C 144.580 176.246,146.774 178.944,147.476 180.058 C 148.177 181.172,149.011 182.380,149.329 182.742 C 149.647 183.104,150.277 184.120,150.729 185.000 C 151.181 185.880,153.109 188.220,155.012 190.200 C 156.916 192.180,158.754 194.340,159.096 195.000 C 159.439 195.660,160.036 196.424,160.424 196.698 C 160.812 196.972,161.840 198.682,162.709 200.498 C 163.950 203.094,164.971 204.484,167.483 207.000 C 171.888 211.411,174.265 214.436,175.142 216.744 C 175.551 217.821,176.433 219.309,177.101 220.051 C 184.941 228.752,185.927 230.005,186.857 232.454 C 187.360 233.776,188.533 235.388,190.367 237.278 L 193.122 240.116 195.788 239.902 C 198.881 239.653,200.039 238.846,201.290 236.062 C 201.720 235.106,202.653 233.666,203.365 232.862 C 204.077 232.058,204.919 231.014,205.237 230.542 C 205.556 230.071,207.357 228.061,209.241 226.077 C 211.621 223.569,212.883 221.879,213.380 220.534 C 213.773 219.470,214.574 217.970,215.159 217.200 C 215.745 216.430,216.566 215.260,216.986 214.600 C 217.405 213.940,219.203 211.960,220.982 210.200 C 222.761 208.440,224.710 206.190,225.312 205.200 C 228.210 200.440,231.556 195.943,235.538 191.458 C 238.804 187.781,240.289 185.625,241.019 183.504 C 241.341 182.567,242.211 181.260,242.951 180.600 C 243.691 179.940,245.511 177.960,246.994 176.200 C 248.477 174.440,250.197 172.548,250.815 171.996 C 251.433 171.444,252.321 169.973,252.787 168.728 C 253.576 166.617,255.944 163.535,259.356 160.175 C 261.348 158.213,264.436 154.194,265.630 152.011 C 266.236 150.903,267.198 149.443,267.766 148.767 C 268.335 148.091,268.800 147.406,268.800 147.244 C 268.800 147.083,270.587 144.900,272.771 142.394 C 275.476 139.290,276.821 137.414,276.990 136.511 C 277.277 134.985,279.051 132.746,284.400 127.165 C 289.413 121.933,291.305 119.495,292.569 116.634 C 293.144 115.332,294.376 113.426,295.307 112.398 C 299.434 107.841,303.393 102.385,304.682 99.478 C 305.216 98.274,309.444 93.850,311.158 92.703 C 314.135 90.709,317.300 92.722,317.790 96.921 C 317.924 98.064,318.082 162.090,318.142 239.200 C 318.255 383.799,318.225 381.132,319.725 382.086 C 320.337 382.475,354.057 382.483,354.640 382.094 C 356.265 381.009,356.195 388.518,356.303 204.689 L 356.405 29.579 355.545 27.893 C 355.072 26.965,353.946 25.538,353.043 24.720 L 351.400 23.233 335.778 23.216 L 320.157 23.200 318.270 24.396 C 317.233 25.054,315.533 25.805,314.492 26.066 C 312.043 26.678,307.020 31.702,306.596 33.962 C 306.154 36.320,305.411 37.330,300.214 42.642 C 295.432 47.528,294.893 48.312,294.210 51.373 C 293.978 52.413,291.766 54.910,285.289 61.444 C 284.063 62.682,282.013 66.435,282.004 67.459 C 282.002 67.711,281.194 68.791,280.208 69.859 C 273.218 77.431,271.311 79.890,270.454 82.431 C 269.897 84.081,269.083 85.501,268.177 86.400 C 260.638 93.885,257.118 98.175,254.983 102.477 C 254.404 103.645,253.181 105.339,252.265 106.241 C 247.788 110.654,243.531 116.255,242.363 119.269 C 242.050 120.077,240.234 122.357,238.329 124.334 C 236.423 126.312,234.547 128.441,234.159 129.065 C 233.772 129.689,233.067 130.650,232.593 131.200 C 232.119 131.750,231.407 133.100,231.010 134.200 C 230.477 135.675,229.370 137.144,226.790 139.800 C 221.147 145.609,220.096 146.913,218.870 149.628 C 218.232 151.042,217.304 152.560,216.808 153.000 C 216.312 153.440,215.360 154.610,214.691 155.600 C 214.022 156.590,213.073 157.760,212.583 158.200 C 209.600 160.875,203.250 168.464,202.990 169.663 C 201.681 175.706,192.969 176.980,189.073 171.699 C 188.551 170.991,187.648 170.038,187.066 169.580 C 186.412 169.066,185.774 167.945,185.398 166.652 C 184.927 165.031,184.043 163.713,181.494 160.830 C 176.874 155.603,173.987 151.967,172.676 149.724 C 170.453 145.921,168.136 142.943,164.797 139.596 C 160.766 135.556,158.394 132.528,157.707 130.543 C 157.197 129.070,153.761 124.545,151.210 121.986 C 148.311 119.079,145.603 115.502,145.146 113.979 C 144.620 112.222,142.637 109.691,136.390 102.800 C 135.493 101.810,134.206 99.927,133.531 98.615 C 132.335 96.293,130.816 94.176,128.818 92.046 C 124.567 87.517,122.048 84.354,121.602 82.988 C 120.673 80.139,118.768 77.791,109.393 67.948 C 106.742 65.163,105.951 64.039,105.308 62.134 C 104.869 60.835,103.991 59.229,103.355 58.565 C 99.701 54.747,97.956 52.494,97.379 50.850 C 97.022 49.832,96.611 48.806,96.465 48.568 C 95.253 46.594,92.832 43.681,89.800 40.549 C 83.396 33.933,82.209 32.536,81.653 30.955 C 80.966 29.000,79.460 27.359,77.400 26.319 C 76.520 25.875,75.293 25.037,74.674 24.456 L 73.548 23.400 56.074 23.319 C 46.463 23.274,38.221 23.394,37.757 23.585 M72.154 25.668 C 73.059 25.925,74.160 26.445,74.600 26.823 C 75.040 27.201,76.132 27.877,77.027 28.326 C 78.965 29.298,79.345 29.731,79.976 31.691 C 80.445 33.148,81.837 35.067,83.360 36.356 C 83.778 36.710,84.459 37.360,84.873 37.800 C 85.287 38.240,85.918 38.870,86.274 39.200 C 87.129 39.991,87.540 40.455,90.527 44.000 C 93.920 48.027,95.698 50.636,96.524 52.800 C 96.908 53.805,98.223 55.660,99.500 57.000 C 102.306 59.942,104.240 62.763,104.611 64.449 C 104.764 65.148,105.545 66.413,106.345 67.260 C 107.145 68.106,108.314 69.411,108.942 70.158 C 110.532 72.051,111.598 73.147,113.650 75.000 C 115.136 76.342,116.547 78.266,119.401 82.840 C 120.754 85.009,121.981 86.686,122.577 87.181 C 122.954 87.494,123.693 88.571,124.219 89.575 C 124.745 90.579,126.628 92.921,128.404 94.780 C 130.180 96.639,131.986 98.957,132.417 99.932 C 132.848 100.907,133.827 102.446,134.592 103.352 C 135.358 104.258,136.432 105.540,136.979 106.200 C 138.130 107.587,139.759 109.523,141.694 111.800 C 142.441 112.680,143.360 114.226,143.735 115.235 C 144.186 116.451,145.505 118.207,147.639 120.435 C 150.807 123.745,151.630 124.819,155.573 130.800 C 156.661 132.450,158.192 134.638,158.975 135.663 C 159.759 136.688,160.400 137.643,160.400 137.785 C 160.400 137.928,162.200 139.860,164.400 142.078 C 166.600 144.297,168.400 146.332,168.400 146.600 C 168.400 146.868,169.094 147.878,169.941 148.844 C 170.789 149.810,171.783 151.140,172.149 151.800 C 172.516 152.460,173.445 153.810,174.215 154.800 C 174.984 155.790,175.988 157.185,176.446 157.900 C 176.904 158.615,177.434 159.200,177.624 159.200 C 177.951 159.200,182.800 165.403,182.800 165.821 C 182.800 166.141,185.388 169.811,187.058 171.858 C 191.812 177.687,194.825 179.330,197.168 177.372 C 197.736 176.897,198.920 176.144,199.800 175.697 C 201.778 174.693,202.548 173.860,203.476 171.721 C 203.874 170.803,205.754 168.451,207.654 166.494 C 209.554 164.537,211.421 162.334,211.802 161.597 C 212.183 160.860,213.058 159.689,213.747 158.994 C 214.436 158.300,215.540 157.078,216.200 156.280 C 216.860 155.481,217.887 154.284,218.483 153.618 C 219.078 152.952,219.791 151.641,220.066 150.704 C 220.662 148.674,226.491 141.548,229.433 139.253 C 230.075 138.752,231.050 137.469,231.600 136.401 C 232.918 133.843,236.535 128.630,238.463 126.509 C 239.308 125.579,240.000 124.573,240.000 124.273 C 240.000 123.974,240.444 123.526,240.986 123.279 C 241.985 122.824,243.263 121.024,246.437 115.600 C 247.554 113.692,249.463 111.353,251.685 109.174 C 254.231 106.678,255.451 105.132,256.184 103.474 C 256.737 102.223,257.369 101.200,257.587 101.200 C 257.805 101.200,258.368 100.435,258.837 99.500 C 259.306 98.565,261.355 96.090,263.391 94.000 C 265.426 91.910,267.368 89.660,267.706 89.000 C 268.045 88.340,268.876 87.393,269.552 86.894 C 270.295 86.348,271.428 84.683,272.410 82.694 C 274.098 79.277,275.470 77.074,276.614 75.940 C 276.980 75.577,277.435 75.127,277.624 74.940 C 282.172 70.440,283.328 68.989,283.807 67.175 C 284.390 64.962,285.789 63.143,291.094 57.699 C 294.604 54.096,295.590 52.489,295.598 50.361 C 295.599 50.009,297.386 47.962,299.569 45.810 C 301.752 43.659,303.638 41.502,303.760 41.018 C 303.881 40.534,304.431 39.932,304.981 39.681 C 305.532 39.431,306.301 38.614,306.691 37.866 C 308.977 33.485,309.823 32.065,310.853 30.886 C 311.484 30.163,312.000 29.413,312.000 29.219 C 312.000 29.025,312.855 28.553,313.900 28.171 C 314.945 27.789,316.956 26.955,318.370 26.318 L 320.940 25.161 336.103 25.444 L 351.266 25.726 352.933 27.328 L 354.600 28.929 354.621 201.965 C 354.632 297.134,354.572 376.106,354.487 377.458 L 354.333 379.917 352.525 380.608 C 349.895 381.612,321.507 381.278,320.460 380.231 C 319.850 379.621,319.793 368.927,319.707 238.086 C 319.607 84.565,319.747 93.187,317.323 90.901 C 314.906 88.622,309.340 89.783,307.766 92.895 C 307.403 93.613,306.542 94.747,305.853 95.416 C 303.612 97.590,300.719 101.655,299.409 104.467 C 298.931 105.494,297.969 106.986,297.270 107.781 C 296.572 108.577,296.000 109.360,296.000 109.521 C 296.000 109.683,295.569 110.081,295.043 110.407 C 293.462 111.386,291.245 114.348,290.768 116.117 C 290.523 117.030,289.799 118.312,289.161 118.965 C 288.522 119.618,288.000 120.322,288.000 120.529 C 288.000 120.905,287.334 121.648,282.400 126.778 C 278.845 130.474,276.086 133.887,274.977 135.961 C 274.466 136.916,273.700 138.080,273.274 138.548 C 272.848 139.017,272.001 140.202,271.393 141.182 C 270.785 142.162,269.945 143.242,269.528 143.582 C 269.110 143.922,268.551 144.590,268.284 145.066 C 268.018 145.542,266.921 147.060,265.848 148.439 C 264.774 149.818,263.588 151.633,263.212 152.472 C 262.837 153.311,262.145 154.403,261.675 154.899 C 255.413 161.506,252.100 165.541,251.845 166.870 C 251.679 167.738,250.720 169.129,249.082 170.876 C 247.703 172.348,245.860 174.581,244.987 175.837 C 244.114 177.093,242.725 178.753,241.900 179.526 C 241.075 180.299,240.400 181.098,240.400 181.302 C 240.400 181.505,240.051 181.971,239.625 182.336 C 239.198 182.701,238.523 183.550,238.125 184.222 C 235.938 187.910,234.880 189.480,233.800 190.643 C 233.140 191.353,232.191 192.534,231.692 193.267 C 231.193 194.000,229.663 196.100,228.292 197.933 C 226.921 199.765,225.309 202.122,224.709 203.169 C 224.108 204.216,222.017 206.595,220.061 208.456 C 218.105 210.316,216.201 212.424,215.831 213.140 C 215.460 213.857,214.802 214.798,214.368 215.232 C 213.934 215.666,213.045 217.007,212.393 218.212 C 211.741 219.417,210.751 221.077,210.192 221.902 C 208.245 224.775,207.216 226.202,206.849 226.540 C 204.289 228.897,199.707 234.664,199.218 236.145 C 198.329 238.839,193.370 239.122,192.148 236.548 C 191.797 235.807,191.358 235.200,191.173 235.200 C 190.988 235.200,189.974 233.823,188.919 232.139 C 187.863 230.456,186.325 228.379,185.500 227.524 C 184.675 226.669,184.000 225.753,184.000 225.489 C 184.000 225.225,183.554 224.557,183.010 224.004 C 180.469 221.427,176.371 216.067,176.030 214.876 C 175.556 213.221,171.451 208.150,169.961 207.380 C 168.424 206.585,164.551 201.528,164.248 199.921 C 164.023 198.723,161.293 194.895,158.030 191.200 C 155.641 188.496,153.783 186.043,152.016 183.260 C 151.034 181.715,149.837 180.272,149.355 180.052 C 148.874 179.833,148.268 179.011,148.009 178.227 C 147.750 177.442,147.399 176.800,147.229 176.800 C 146.748 176.800,139.600 168.386,139.600 167.820 C 139.600 167.543,139.126 166.806,138.547 166.181 C 137.968 165.556,137.237 164.430,136.923 163.679 C 136.329 162.257,131.186 156.133,129.416 154.741 C 128.857 154.302,128.400 153.713,128.400 153.433 C 128.400 153.153,128.031 152.590,127.579 152.181 C 127.128 151.773,126.094 150.173,125.280 148.625 C 124.467 147.077,122.991 144.966,122.001 143.934 C 121.010 142.901,119.525 141.189,118.700 140.128 C 117.875 139.068,116.144 137.078,114.854 135.706 C 113.231 133.980,112.352 132.656,112.003 131.409 C 111.725 130.418,111.109 129.187,110.634 128.674 C 110.158 128.161,109.376 127.241,108.895 126.630 C 107.539 124.907,103.540 120.407,102.144 119.035 C 101.453 118.356,100.662 117.080,100.386 116.200 C 99.894 114.629,98.887 113.139,96.700 110.743 C 96.095 110.081,95.600 109.380,95.600 109.186 C 95.600 108.993,94.970 108.331,94.200 107.717 C 93.430 107.103,92.800 106.375,92.800 106.100 C 92.800 105.825,92.458 105.258,92.040 104.840 C 90.592 103.392,87.302 98.953,87.021 98.068 C 86.866 97.579,86.293 96.886,85.747 96.528 C 85.201 96.170,84.415 95.213,84.000 94.400 C 82.500 91.459,77.549 89.567,74.479 90.760 C 70.721 92.220,69.459 94.973,70.607 99.200 C 71.220 101.455,71.569 377.373,70.961 378.957 C 70.014 381.426,66.968 381.752,51.600 381.029 C 42.359 380.594,41.429 380.589,39.163 380.966 C 37.401 381.260,37.309 381.226,36.880 380.136 C 35.446 376.489,34.986 353.497,35.901 331.200 C 36.267 322.264,36.456 280.311,36.607 174.400 C 36.807 33.315,36.856 26.660,37.696 26.141 C 38.034 25.931,50.600 25.554,66.754 25.267 C 68.818 25.230,71.248 25.411,72.154 25.668 " stroke="none" fill="#94d2d8" fill-rule="evenodd"></path><path id="path3" d="M39.930 21.171 C 34.407 21.498,32.798 23.459,32.852 29.800 C 33.665 125.800,32.629 298.957,31.083 325.200 C 30.299 338.506,30.430 372.546,31.274 374.800 C 31.644 375.790,32.327 377.906,32.791 379.502 C 34.114 384.052,32.938 383.778,51.782 383.928 C 70.635 384.078,73.317 383.920,74.658 382.579 L 75.600 381.636 75.600 238.898 C 75.600 128.413,75.708 96.052,76.080 95.680 C 77.800 93.960,82.400 96.658,82.400 99.386 C 82.400 100.171,86.741 105.309,91.700 110.393 C 92.965 111.690,94.000 113.018,94.000 113.345 C 94.000 113.671,94.437 114.458,94.971 115.093 C 95.505 115.728,96.383 117.227,96.921 118.424 C 97.613 119.961,98.840 121.491,101.101 123.635 C 102.862 125.305,104.497 127.033,104.734 127.477 C 104.971 127.920,105.816 129.062,106.612 130.014 C 107.407 130.966,108.593 132.927,109.246 134.372 C 109.900 135.818,111.154 137.720,112.032 138.600 C 118.270 144.848,121.194 148.273,121.426 149.600 C 121.560 150.370,121.753 151.306,121.855 151.679 C 121.957 152.053,124.398 154.753,127.280 157.679 C 132.152 162.627,132.573 163.177,133.287 165.528 C 133.940 167.680,134.603 168.671,137.727 172.171 C 139.747 174.434,141.689 176.643,142.042 177.079 C 142.395 177.516,143.045 178.127,143.487 178.436 C 143.929 178.746,144.930 180.270,145.711 181.823 C 146.493 183.376,147.430 184.893,147.793 185.194 C 148.156 185.495,148.733 186.295,149.076 186.971 C 149.418 187.647,151.460 189.941,153.612 192.069 C 155.765 194.197,157.646 196.313,157.791 196.772 C 157.936 197.230,158.485 198.115,159.009 198.738 C 159.534 199.362,160.336 200.868,160.791 202.085 C 161.340 203.553,162.257 204.910,163.510 206.112 C 168.374 210.778,169.774 212.566,172.781 217.960 C 173.801 219.789,175.535 222.007,177.316 223.760 C 178.902 225.322,180.735 227.410,181.388 228.400 C 182.042 229.390,183.070 230.783,183.672 231.495 C 184.274 232.207,184.957 233.467,185.190 234.295 C 186.008 237.199,190.590 241.562,193.269 241.988 C 199.291 242.944,202.148 241.565,203.603 237.000 C 203.883 236.120,204.724 234.680,205.471 233.800 C 207.204 231.759,210.993 227.612,212.787 225.791 C 213.550 225.017,214.540 223.681,214.987 222.823 C 217.335 218.315,219.948 214.653,223.141 211.400 C 227.092 207.373,230.484 202.644,231.217 200.138 C 231.485 199.224,232.013 198.324,232.390 198.138 C 232.768 197.952,234.539 196.180,236.326 194.200 C 238.113 192.220,240.052 190.107,240.634 189.504 C 241.624 188.479,242.743 186.066,242.782 184.872 C 242.798 184.416,248.215 178.303,252.883 173.473 C 253.698 172.630,254.744 170.928,255.206 169.692 C 255.668 168.457,256.674 166.750,257.442 165.901 C 258.209 165.052,259.022 163.950,259.249 163.453 C 259.475 162.955,260.055 162.290,260.537 161.974 C 262.261 160.845,266.323 156.163,267.345 154.128 C 267.917 152.989,268.587 151.932,268.834 151.779 C 269.081 151.626,269.600 150.794,269.987 149.929 C 270.683 148.375,273.574 144.874,276.516 142.022 C 277.466 141.102,278.249 139.832,278.614 138.620 C 279.213 136.628,280.374 135.023,284.702 130.200 C 287.951 126.580,288.138 126.383,291.122 123.466 C 293.731 120.914,294.472 119.679,294.961 117.071 C 295.187 115.864,295.960 114.829,298.620 112.169 C 300.475 110.314,302.466 108.046,303.044 107.130 C 303.623 106.213,304.430 105.105,304.837 104.668 C 305.245 104.231,305.878 102.956,306.245 101.836 C 307.526 97.923,312.579 94.011,314.809 95.205 C 316.055 95.872,316.032 93.275,316.117 239.800 C 316.207 392.578,316.058 382.864,318.312 383.495 C 318.910 383.663,327.500 383.800,337.400 383.800 C 356.195 383.800,357.463 383.694,358.271 382.063 C 358.791 381.015,358.899 30.229,358.380 27.718 C 357.855 25.172,354.585 21.846,352.084 21.315 C 351.268 21.142,343.490 21.000,334.800 21.000 C 317.855 21.000,317.134 21.081,316.044 23.117 C 315.803 23.568,314.772 24.011,313.220 24.332 C 311.168 24.755,310.536 25.102,309.288 26.488 C 308.469 27.396,307.335 28.603,306.767 29.170 C 305.336 30.596,304.800 31.719,304.800 33.291 C 304.800 34.478,304.145 35.306,299.166 40.417 C 293.660 46.069,292.790 47.271,292.200 50.043 C 291.903 51.438,291.162 52.302,284.553 58.960 C 281.337 62.198,280.823 62.915,280.214 65.011 C 279.494 67.489,278.692 68.615,274.448 73.102 C 273.045 74.586,271.291 76.440,270.551 77.222 C 269.646 78.178,269.091 79.252,268.858 80.500 C 268.491 82.466,266.968 84.560,263.342 88.089 C 262.274 89.128,260.548 90.928,259.507 92.089 C 258.465 93.250,256.707 95.211,255.598 96.448 C 254.188 98.021,253.327 99.461,252.731 101.248 C 252.181 102.894,251.368 104.314,250.439 105.249 C 249.648 106.046,248.820 106.899,248.600 107.145 C 248.380 107.391,247.588 108.083,246.840 108.682 C 246.092 109.282,244.871 110.723,244.128 111.886 C 243.384 113.049,242.623 114.000,242.436 114.000 C 242.061 114.000,241.401 115.512,240.916 117.486 C 240.712 118.315,239.248 120.187,236.800 122.749 C 231.227 128.582,229.964 130.225,229.292 132.517 C 228.841 134.053,228.152 135.102,226.591 136.626 C 225.438 137.752,224.380 139.034,224.239 139.476 C 224.099 139.917,223.547 140.478,223.012 140.722 C 222.476 140.966,221.755 141.713,221.409 142.383 C 221.063 143.052,220.613 143.600,220.409 143.600 C 219.440 143.600,217.179 146.660,216.385 149.046 C 215.897 150.510,215.205 151.783,214.770 152.016 C 214.351 152.240,213.751 152.913,213.436 153.512 C 212.946 154.443,209.107 158.654,203.828 164.047 C 202.497 165.408,200.413 169.208,200.404 170.291 C 200.397 171.191,198.628 171.956,195.913 172.233 L 193.226 172.508 190.265 169.636 C 187.559 167.013,187.264 166.568,186.846 164.483 C 186.506 162.786,186.036 161.841,185.017 160.800 C 180.756 156.452,178.730 154.264,178.164 153.401 C 177.814 152.868,177.195 152.325,176.787 152.196 C 176.306 152.043,175.817 151.176,175.396 149.727 C 174.581 146.922,172.755 144.407,168.479 140.200 C 164.690 136.471,160.155 130.534,159.037 127.839 C 158.350 126.182,157.187 124.798,151.537 118.913 C 148.478 115.727,147.939 114.955,147.569 113.231 C 147.334 112.134,146.657 110.643,146.065 109.918 C 144.359 107.829,140.907 104.400,140.510 104.400 C 140.311 104.400,139.858 103.791,139.503 103.047 C 139.148 102.302,138.333 101.087,137.692 100.347 C 137.051 99.606,136.062 97.972,135.493 96.717 C 134.515 94.555,133.784 93.650,129.000 88.673 C 124.994 84.505,123.314 82.239,123.017 80.605 C 122.688 78.787,121.571 77.363,115.800 71.396 C 110.447 65.862,108.439 63.279,107.627 60.881 C 107.133 59.419,106.011 57.856,103.476 55.094 C 101.047 52.448,99.924 50.902,99.744 49.955 C 99.364 47.962,98.487 46.425,96.642 44.522 C 95.300 43.137,90.724 38.273,86.177 33.400 C 85.725 32.915,85.134 32.445,84.863 32.354 C 84.593 32.264,84.134 31.165,83.842 29.911 C 83.129 26.844,82.284 25.679,80.066 24.707 C 79.040 24.257,77.432 23.341,76.493 22.672 C 75.405 21.895,74.029 21.347,72.693 21.157 C 70.302 20.816,45.758 20.827,39.930 21.171 M74.671 23.099 C 75.292 23.593,76.895 24.513,78.233 25.143 C 80.889 26.394,81.946 27.601,82.910 30.484 C 83.520 32.307,84.287 33.204,92.600 41.818 C 95.561 44.886,97.608 47.787,98.201 49.756 C 98.577 51.005,99.480 52.463,100.695 53.788 C 105.023 58.503,105.939 59.733,106.357 61.394 C 106.795 63.133,110.148 67.236,116.111 73.330 C 120.053 77.358,121.409 79.226,122.285 81.832 C 122.874 83.587,123.643 84.812,125.051 86.236 C 129.640 90.882,133.253 95.220,134.052 97.043 C 134.960 99.118,137.551 102.654,140.200 105.436 C 144.937 110.410,145.879 111.666,146.442 113.756 C 146.896 115.441,148.714 117.727,153.749 122.939 C 156.083 125.355,157.262 126.977,158.303 129.200 C 159.718 132.222,161.818 134.947,166.155 139.388 C 169.670 142.987,173.192 147.544,174.205 149.803 C 175.125 151.852,175.633 152.485,181.696 159.138 C 184.593 162.317,185.346 163.424,186.096 165.610 C 188.971 173.996,200.218 176.641,202.051 169.363 C 202.511 167.535,204.782 164.710,211.162 158.028 C 212.723 156.394,214.000 154.905,214.000 154.719 C 214.000 154.534,214.687 153.621,215.527 152.691 C 216.367 151.761,217.364 150.165,217.744 149.143 C 218.494 147.121,220.368 144.838,225.967 139.120 C 228.760 136.268,229.738 134.976,230.159 133.582 C 230.886 131.175,233.093 128.142,237.000 124.179 C 241.138 119.981,241.121 120.004,241.966 117.694 C 242.814 115.374,245.758 111.470,249.676 107.469 C 251.553 105.552,252.861 103.776,253.618 102.118 C 255.033 99.017,257.657 95.584,261.965 91.200 C 268.552 84.495,269.059 83.856,269.611 81.554 C 270.114 79.455,272.404 76.547,279.198 69.378 C 279.835 68.706,280.789 66.965,281.317 65.509 C 282.118 63.302,282.803 62.334,285.439 59.682 C 292.023 53.057,293.253 51.587,293.488 50.060 C 293.849 47.719,294.460 46.891,299.935 41.320 C 304.720 36.453,305.160 35.879,305.570 33.965 C 306.333 30.407,310.961 25.702,314.329 25.061 C 315.059 24.922,316.474 24.222,317.473 23.504 L 319.289 22.200 335.408 22.087 L 351.527 21.974 354.004 24.035 C 355.367 25.169,356.733 26.699,357.041 27.436 C 357.632 28.850,357.928 377.858,357.341 380.795 C 356.861 383.196,356.493 383.237,336.598 383.112 C 320.160 383.008,318.774 382.946,318.114 382.286 C 317.432 381.604,317.391 375.157,317.200 238.886 C 316.976 79.257,317.275 93.950,314.241 93.381 C 311.944 92.950,306.849 97.195,305.482 100.679 C 304.496 103.192,301.515 107.341,297.746 111.448 C 295.113 114.315,294.250 115.560,293.769 117.178 C 293.133 119.320,290.252 122.819,282.135 131.308 C 279.400 134.169,278.609 135.290,277.851 137.378 C 277.094 139.464,276.334 140.542,273.761 143.181 C 272.022 144.963,270.136 147.223,269.570 148.202 C 269.003 149.181,268.259 150.302,267.916 150.691 C 267.574 151.081,266.890 152.210,266.397 153.200 C 265.453 155.096,263.377 157.695,260.144 161.030 C 256.696 164.586,254.077 168.065,253.821 169.428 C 253.566 170.786,248.862 176.441,244.514 180.616 C 242.969 182.100,242.208 183.234,241.631 184.911 C 240.794 187.342,238.246 190.608,232.242 196.945 C 231.229 198.014,230.400 199.112,230.400 199.383 C 230.400 200.407,224.871 207.934,221.693 211.236 C 218.144 214.924,215.410 218.705,214.022 221.846 C 213.547 222.921,212.742 224.160,212.233 224.600 C 211.133 225.550,206.776 230.377,204.800 232.834 C 204.030 233.791,202.950 235.642,202.400 236.946 C 201.007 240.251,199.918 240.961,195.971 241.141 L 192.795 241.285 189.658 238.232 C 187.331 235.967,186.391 234.742,186.021 233.489 C 185.747 232.560,185.045 231.193,184.461 230.452 C 183.877 229.711,182.950 228.517,182.400 227.799 C 181.850 227.081,179.838 224.760,177.929 222.642 C 175.897 220.387,174.257 218.170,173.973 217.295 C 173.461 215.719,170.459 211.595,168.038 209.144 C 163.544 204.592,162.756 203.598,161.614 201.042 C 160.936 199.526,159.846 197.675,159.191 196.929 C 158.536 196.183,158.000 195.429,158.000 195.255 C 158.000 195.080,156.335 193.206,154.300 191.089 C 150.979 187.635,147.986 183.570,146.282 180.200 C 145.948 179.540,144.893 178.275,143.938 177.388 C 142.982 176.501,141.259 174.611,140.109 173.188 C 138.959 171.765,137.390 169.825,136.623 168.878 C 135.855 167.932,134.841 166.098,134.370 164.805 C 133.831 163.327,132.970 161.952,132.056 161.108 C 127.801 157.179,122.984 151.472,122.566 149.864 C 121.906 147.324,121.368 146.538,117.850 142.969 C 112.583 137.627,110.811 135.383,110.179 133.254 C 109.859 132.177,109.298 131.049,108.932 130.748 C 108.566 130.447,107.562 129.300,106.700 128.200 C 105.838 127.100,103.695 124.708,101.938 122.886 C 99.910 120.782,98.403 118.801,97.811 117.463 C 97.298 116.303,96.436 114.825,95.896 114.177 C 95.355 113.530,94.632 112.460,94.289 111.800 C 93.945 111.140,92.291 109.250,90.612 107.600 C 87.600 104.640,82.997 98.323,82.548 96.533 C 81.950 94.154,77.240 92.945,75.213 94.651 C 73.917 95.741,73.907 95.775,74.171 98.348 C 74.623 102.757,74.449 380.762,73.994 381.612 C 73.235 383.029,71.088 383.195,53.522 383.198 L 36.445 383.200 35.423 382.300 C 32.478 379.707,30.661 356.552,31.961 338.200 C 32.211 334.680,32.584 329.100,32.792 325.800 C 33.517 314.261,34.021 246.115,34.189 136.761 C 34.375 15.160,34.177 24.013,36.748 22.595 C 38.767 21.482,73.215 21.939,74.671 23.099 " stroke="none" fill="#d1eced" fill-rule="evenodd"></path><path id="path4" d="M0.000 200.000 L 0.000 400.000 200.000 400.000 L 400.000 400.000 400.000 200.000 L 400.000 0.000 200.000 0.000 L 0.000 0.000 0.000 200.000 M76.238 20.711 C 77.580 21.420,78.988 22.344,79.367 22.764 C 79.747 23.184,80.630 23.753,81.329 24.029 C 83.339 24.824,83.946 25.560,84.230 27.546 C 84.593 30.091,85.483 31.409,89.189 34.893 C 90.943 36.542,92.560 38.368,92.782 38.952 C 93.004 39.536,93.642 40.188,94.200 40.400 C 94.758 40.612,95.371 41.194,95.563 41.693 C 95.755 42.192,96.721 43.203,97.710 43.940 C 99.806 45.502,100.302 46.427,100.656 49.434 C 100.894 51.460,101.023 51.682,102.257 52.198 C 102.996 52.507,103.600 52.945,103.600 53.171 C 103.600 53.398,104.567 54.532,105.749 55.692 C 108.218 58.113,108.600 58.752,108.991 61.116 C 109.187 62.299,109.580 63.031,110.258 63.475 C 110.799 63.829,111.500 64.619,111.816 65.230 C 112.420 66.398,117.944 72.000,118.492 72.000 C 118.667 72.000,119.443 72.990,120.217 74.200 C 120.991 75.410,121.797 76.400,122.007 76.400 C 122.525 76.400,124.205 79.129,124.552 80.532 C 124.874 81.836,126.743 84.800,127.244 84.800 C 127.429 84.800,127.910 85.441,128.311 86.224 C 128.713 87.007,129.479 87.865,130.013 88.132 C 130.547 88.398,131.200 89.049,131.464 89.579 C 131.729 90.109,132.334 90.750,132.809 91.005 C 134.266 91.785,136.306 94.722,136.841 96.811 C 137.168 98.084,137.611 98.877,138.082 99.026 C 138.484 99.154,139.155 99.928,139.573 100.747 C 139.991 101.566,141.130 102.971,142.104 103.869 C 143.078 104.767,144.268 106.053,144.748 106.727 C 145.228 107.401,145.957 108.059,146.367 108.190 C 147.284 108.480,147.910 109.924,148.363 112.789 C 148.552 113.988,148.925 115.042,149.190 115.130 C 150.206 115.469,156.363 121.914,156.610 122.897 C 156.773 123.548,157.237 124.023,157.861 124.180 C 158.489 124.337,159.061 124.927,159.420 125.787 C 159.732 126.534,160.140 127.239,160.326 127.354 C 160.824 127.662,164.400 133.810,164.400 134.358 C 164.400 134.616,165.022 135.194,165.782 135.643 C 166.543 136.091,167.270 136.789,167.398 137.193 C 167.526 137.598,168.061 138.210,168.587 138.555 C 169.688 139.276,172.400 141.997,172.400 142.381 C 172.400 142.523,173.099 143.366,173.953 144.255 C 175.096 145.444,175.627 146.434,175.962 147.999 C 176.377 149.934,176.766 150.471,180.250 153.921 C 182.358 156.008,184.261 158.230,184.480 158.858 C 184.699 159.486,185.103 160.000,185.377 160.000 C 186.188 160.000,187.094 161.280,187.583 163.116 C 188.044 164.848,190.267 168.400,190.890 168.400 C 191.076 168.400,191.603 169.037,192.062 169.816 L 192.898 171.232 195.920 171.116 L 198.942 171.000 199.408 168.926 C 200.039 166.115,201.827 163.563,203.547 163.017 C 203.972 162.882,204.431 162.331,204.566 161.793 C 204.701 161.255,205.336 160.543,205.977 160.212 C 206.619 159.880,207.245 159.292,207.369 158.904 C 207.638 158.064,211.135 154.400,211.668 154.400 C 211.873 154.400,212.301 153.777,212.620 153.015 C 212.938 152.253,213.720 151.035,214.359 150.308 C 214.997 149.581,215.735 148.180,216.000 147.193 C 216.385 145.760,217.257 144.609,220.341 141.464 C 222.463 139.299,224.965 136.741,225.900 135.779 C 227.060 134.585,227.600 133.682,227.600 132.934 C 227.600 131.496,229.865 127.790,231.084 127.234 C 231.611 126.994,232.231 126.257,232.461 125.597 C 232.718 124.861,233.247 124.303,233.826 124.158 C 234.346 124.027,234.894 123.533,235.044 123.060 C 235.193 122.587,236.430 121.117,237.793 119.794 C 239.915 117.732,240.304 117.131,240.508 115.594 C 240.683 114.278,241.059 113.534,241.922 112.800 C 242.569 112.250,243.471 111.062,243.926 110.161 C 244.381 109.260,245.259 108.200,245.877 107.806 C 248.850 105.911,251.641 102.404,252.018 100.089 C 252.288 98.431,252.694 97.547,253.607 96.631 C 254.282 95.954,255.761 94.365,256.895 93.100 C 258.028 91.835,259.188 90.800,259.470 90.800 C 259.753 90.800,260.099 90.344,260.239 89.786 C 260.379 89.228,261.007 88.506,261.635 88.182 C 262.263 87.857,262.991 87.189,263.252 86.696 C 263.514 86.203,264.663 84.696,265.806 83.346 C 267.279 81.606,267.959 80.419,268.143 79.265 C 268.339 78.041,268.750 77.374,269.802 76.572 C 270.571 75.985,271.206 75.301,271.214 75.053 C 271.235 74.401,272.763 72.710,274.493 71.425 C 275.314 70.815,276.390 69.506,276.885 68.516 C 277.379 67.527,278.097 66.497,278.481 66.228 C 278.865 65.960,279.380 64.800,279.626 63.651 C 279.873 62.502,280.345 61.346,280.675 61.081 C 281.758 60.215,282.975 59.008,284.473 57.319 C 285.284 56.405,286.317 55.459,286.769 55.216 C 287.222 54.974,287.872 54.234,288.215 53.571 C 288.558 52.908,289.257 52.206,289.769 52.012 C 290.498 51.735,290.763 51.237,290.988 49.729 C 291.495 46.333,293.606 43.200,295.387 43.200 C 295.677 43.200,296.028 42.744,296.168 42.186 C 296.308 41.629,296.856 40.975,297.387 40.733 C 297.917 40.492,298.839 39.522,299.435 38.579 C 300.031 37.636,301.208 36.354,302.050 35.732 C 303.140 34.926,303.584 34.297,303.591 33.549 C 303.605 31.944,304.723 29.555,306.187 28.000 C 306.912 27.230,308.025 26.043,308.660 25.362 C 309.363 24.608,310.404 24.013,311.322 23.841 C 312.151 23.686,314.194 22.623,315.863 21.479 L 318.897 19.400 335.348 19.400 L 351.800 19.400 353.800 20.465 C 357.498 22.436,358.815 24.221,359.248 27.854 C 359.477 29.779,359.579 99.182,359.511 206.689 L 359.400 382.378 358.489 383.289 L 357.578 384.200 337.403 384.200 C 318.569 384.200,317.181 384.153,316.514 383.486 C 315.832 382.803,315.791 376.400,315.600 240.412 L 315.400 98.053 314.225 96.826 C 312.752 95.289,312.659 95.295,311.653 97.000 C 311.199 97.770,310.551 98.400,310.213 98.400 C 309.876 98.400,309.600 98.555,309.600 98.745 C 309.600 98.935,309.055 99.776,308.388 100.615 C 307.722 101.454,306.974 102.942,306.727 103.924 C 306.413 105.171,305.951 105.895,305.191 106.331 C 304.594 106.674,303.905 107.507,303.661 108.183 C 303.416 108.859,301.503 111.085,299.408 113.130 C 296.467 116.001,295.599 117.093,295.598 117.924 C 295.593 120.133,294.798 121.980,293.581 122.610 C 292.932 122.946,292.400 123.424,292.400 123.672 C 292.400 123.921,291.238 125.264,289.817 126.657 C 288.396 128.050,287.041 129.550,286.805 129.990 C 286.570 130.430,285.932 130.902,285.388 131.039 C 284.747 131.200,284.117 131.870,283.596 132.943 C 281.710 136.835,278.123 142.221,277.083 142.722 C 276.488 143.009,276.000 143.515,276.000 143.846 C 276.000 144.177,275.122 145.382,274.049 146.524 C 272.976 147.666,271.602 149.590,270.996 150.800 C 270.390 152.010,269.378 153.591,268.747 154.314 C 268.116 155.037,267.600 155.895,267.600 156.222 C 267.600 156.549,265.785 158.651,263.567 160.892 C 261.349 163.134,259.281 165.458,258.971 166.056 C 258.662 166.654,258.056 167.255,257.625 167.392 C 256.809 167.651,256.631 168.038,256.227 170.444 C 255.955 172.066,253.517 175.446,252.352 175.815 C 251.934 175.948,251.320 176.581,250.988 177.223 C 250.657 177.864,249.945 178.499,249.407 178.634 C 248.869 178.769,248.306 179.267,248.156 179.740 C 248.007 180.213,247.101 181.496,246.144 182.591 C 245.187 183.686,244.117 185.446,243.766 186.503 C 243.064 188.615,241.284 190.867,235.705 196.699 C 232.698 199.841,231.900 200.939,231.420 202.592 C 231.075 203.778,230.324 205.106,229.615 205.786 C 228.947 206.426,228.400 207.183,228.400 207.468 C 228.400 208.177,224.789 212.000,224.119 212.000 C 223.823 212.000,223.412 212.441,223.207 212.981 C 223.002 213.520,222.319 214.228,221.688 214.554 C 220.930 214.946,220.388 215.663,220.085 216.673 C 219.593 218.314,216.903 222.684,215.845 223.563 C 215.490 223.857,215.200 224.334,215.200 224.622 C 215.200 224.910,214.677 225.518,214.038 225.973 C 213.399 226.428,212.421 227.565,211.866 228.500 C 211.310 229.435,210.348 230.532,209.727 230.937 C 209.105 231.342,208.058 232.575,207.399 233.676 C 206.739 234.777,205.754 236.230,205.209 236.904 C 204.664 237.579,203.944 238.957,203.609 239.966 C 202.414 243.564,190.371 244.224,188.594 240.788 C 188.274 240.169,187.492 239.292,186.855 238.839 C 186.219 238.386,185.402 237.427,185.041 236.708 C 184.679 235.989,183.670 234.410,182.798 233.200 C 181.927 231.990,180.732 229.980,180.142 228.734 C 179.533 227.449,178.673 226.288,178.154 226.052 C 177.650 225.822,176.955 225.087,176.609 224.417 C 176.263 223.748,175.749 223.200,175.468 223.200 C 174.613 223.200,172.498 220.714,171.638 218.697 C 171.191 217.651,170.456 216.397,170.003 215.912 C 169.551 215.426,168.977 214.347,168.727 213.514 C 168.478 212.681,168.106 212.000,167.902 212.000 C 167.398 212.000,163.200 207.739,163.200 207.228 C 163.200 207.004,162.664 206.544,162.010 206.205 C 161.090 205.729,160.676 205.098,160.192 203.431 C 159.847 202.243,159.296 201.169,158.969 201.043 C 158.641 200.918,157.859 199.686,157.230 198.307 C 156.481 196.664,155.652 195.524,154.827 195.000 C 154.133 194.560,152.848 193.255,151.970 192.100 C 151.092 190.945,150.191 190.000,149.967 190.000 C 149.743 190.000,149.301 189.383,148.986 188.629 C 148.671 187.875,148.079 187.152,147.670 187.022 C 146.687 186.710,144.674 183.518,143.833 180.939 C 143.321 179.368,142.929 178.819,142.187 178.632 C 141.588 178.482,141.115 178.000,140.959 177.380 C 140.820 176.826,140.232 176.121,139.653 175.814 C 139.074 175.507,137.970 174.503,137.200 173.583 C 136.430 172.664,135.137 171.216,134.326 170.366 C 133.212 169.198,132.786 168.354,132.583 166.910 C 132.251 164.557,131.871 163.939,129.154 161.337 C 123.201 155.634,121.359 153.385,120.790 151.127 C 120.473 149.865,119.694 148.647,118.164 147.016 C 116.968 145.741,115.886 144.286,115.760 143.783 C 115.625 143.244,115.118 142.766,114.524 142.617 C 113.905 142.461,113.347 141.914,113.076 141.196 C 112.834 140.554,112.174 139.838,111.609 139.604 C 110.142 138.996,108.385 136.625,107.638 134.246 C 107.285 133.121,106.502 131.713,105.898 131.118 C 105.294 130.523,104.800 129.811,104.800 129.535 C 104.800 129.260,103.008 127.273,100.817 125.120 C 97.866 122.220,96.710 120.792,96.355 119.609 C 96.092 118.730,95.459 117.738,94.949 117.403 C 94.367 117.022,93.783 115.976,93.382 114.598 C 93.031 113.389,92.568 112.400,92.354 112.400 C 91.673 112.400,88.086 108.798,87.855 107.881 C 87.733 107.397,87.224 106.820,86.724 106.600 C 86.224 106.380,85.631 105.837,85.407 105.393 C 85.183 104.949,84.217 103.806,83.261 102.853 C 82.304 101.900,80.974 99.952,80.305 98.523 L 79.090 95.926 77.845 97.170 L 76.600 98.415 76.400 240.508 C 76.290 318.658,76.058 382.818,75.886 383.085 C 75.148 384.223,72.253 384.395,54.200 384.375 C 33.127 384.352,33.328 384.377,32.397 381.600 C 32.065 380.610,31.395 379.176,30.908 378.413 C 30.421 377.650,29.883 376.210,29.712 375.213 C 28.813 369.966,30.011 282.792,31.402 252.200 C 31.852 242.315,31.971 227.466,31.927 187.000 C 31.896 158.180,31.944 130.910,32.035 126.400 C 32.575 99.558,32.196 34.159,31.494 33.088 C 30.792 32.015,30.858 29.202,31.609 28.200 C 31.774 27.980,32.040 26.990,32.200 26.000 C 33.269 19.359,33.583 19.279,58.200 19.366 L 73.800 19.421 76.238 20.711 " stroke="none" fill="#fcfcfc" fill-rule="evenodd"></path><path id="path5" d="M39.399 19.555 C 34.571 19.924,32.944 21.381,32.200 26.000 C 32.040 26.990,31.774 27.980,31.609 28.200 C 30.858 29.202,30.792 32.015,31.494 33.088 C 32.196 34.159,32.575 99.558,32.035 126.400 C 31.944 130.910,31.896 158.180,31.927 187.000 C 31.971 227.466,31.852 242.315,31.402 252.200 C 30.011 282.792,28.813 369.966,29.712 375.213 C 29.883 376.210,30.421 377.650,30.908 378.413 C 31.395 379.176,32.065 380.610,32.397 381.600 C 33.328 384.377,33.127 384.352,54.200 384.375 C 72.253 384.395,75.148 384.223,75.886 383.085 C 76.058 382.818,76.290 318.658,76.400 240.508 L 76.600 98.415 77.845 97.170 L 79.090 95.926 80.305 98.523 C 80.974 99.952,82.304 101.900,83.261 102.853 C 84.217 103.806,85.183 104.949,85.407 105.393 C 85.631 105.837,86.224 106.380,86.724 106.600 C 87.224 106.820,87.733 107.397,87.855 107.881 C 88.086 108.798,91.673 112.400,92.354 112.400 C 92.568 112.400,93.031 113.389,93.382 114.598 C 93.783 115.976,94.367 117.022,94.949 117.403 C 95.459 117.738,96.092 118.730,96.355 119.609 C 96.710 120.792,97.866 122.220,100.817 125.120 C 103.008 127.273,104.800 129.260,104.800 129.535 C 104.800 129.811,105.294 130.523,105.898 131.118 C 106.502 131.713,107.285 133.121,107.638 134.246 C 108.385 136.625,110.142 138.996,111.609 139.604 C 112.174 139.838,112.834 140.554,113.076 141.196 C 113.347 141.914,113.905 142.461,114.524 142.617 C 115.118 142.766,115.625 143.244,115.760 143.783 C 115.886 144.286,116.968 145.741,118.164 147.016 C 119.694 148.647,120.473 149.865,120.790 151.127 C 121.359 153.385,123.201 155.634,129.154 161.337 C 131.871 163.939,132.251 164.557,132.583 166.910 C 132.786 168.354,133.212 169.198,134.326 170.366 C 135.137 171.216,136.430 172.664,137.200 173.583 C 137.970 174.503,139.074 175.507,139.653 175.814 C 140.232 176.121,140.820 176.826,140.959 177.380 C 141.115 178.000,141.588 178.482,142.187 178.632 C 142.929 178.819,143.321 179.368,143.833 180.939 C 144.674 183.518,146.687 186.710,147.670 187.022 C 148.079 187.152,148.671 187.875,148.986 188.629 C 149.301 189.383,149.743 190.000,149.967 190.000 C 150.191 190.000,151.092 190.945,151.970 192.100 C 152.848 193.255,154.133 194.560,154.827 195.000 C 155.652 195.524,156.481 196.664,157.230 198.307 C 157.859 199.686,158.641 200.918,158.969 201.043 C 159.296 201.169,159.847 202.243,160.192 203.431 C 160.676 205.098,161.090 205.729,162.010 206.205 C 162.664 206.544,163.200 207.004,163.200 207.228 C 163.200 207.739,167.398 212.000,167.902 212.000 C 168.106 212.000,168.478 212.681,168.727 213.514 C 168.977 214.347,169.551 215.426,170.003 215.912 C 170.456 216.397,171.191 217.651,171.638 218.697 C 172.498 220.714,174.613 223.200,175.468 223.200 C 175.749 223.200,176.263 223.748,176.609 224.417 C 176.955 225.087,177.650 225.822,178.154 226.052 C 178.673 226.288,179.533 227.449,180.142 228.734 C 180.732 229.980,181.927 231.990,182.798 233.200 C 183.670 234.410,184.679 235.989,185.041 236.708 C 185.402 237.427,186.219 238.386,186.855 238.839 C 187.492 239.292,188.274 240.169,188.594 240.788 C 189.406 242.359,191.053 242.804,195.960 242.777 C 201.672 242.747,202.826 242.323,203.609 239.966 C 203.944 238.957,204.664 237.579,205.209 236.904 C 205.754 236.230,206.739 234.777,207.399 233.676 C 208.058 232.575,209.105 231.342,209.727 230.937 C 210.348 230.532,211.310 229.435,211.866 228.500 C 212.421 227.565,213.399 226.428,214.038 225.973 C 214.677 225.518,215.200 224.910,215.200 224.622 C 215.200 224.334,215.490 223.857,215.845 223.563 C 216.903 222.684,219.593 218.314,220.085 216.673 C 220.388 215.663,220.930 214.946,221.688 214.554 C 222.319 214.228,223.002 213.520,223.207 212.981 C 223.412 212.441,223.823 212.000,224.119 212.000 C 224.789 212.000,228.400 208.177,228.400 207.468 C 228.400 207.183,228.947 206.426,229.615 205.786 C 230.324 205.106,231.075 203.778,231.420 202.592 C 231.900 200.939,232.698 199.841,235.705 196.699 C 241.284 190.867,243.064 188.615,243.766 186.503 C 244.117 185.446,245.187 183.686,246.144 182.591 C 247.101 181.496,248.007 180.213,248.156 179.740 C 248.306 179.267,248.869 178.769,249.407 178.634 C 249.945 178.499,250.657 177.864,250.988 177.223 C 251.320 176.581,251.934 175.948,252.352 175.815 C 253.517 175.446,255.955 172.066,256.227 170.444 C 256.631 168.038,256.809 167.651,257.625 167.392 C 258.056 167.255,258.662 166.654,258.971 166.056 C 259.281 165.458,261.349 163.134,263.567 160.892 C 265.785 158.651,267.600 156.549,267.600 156.222 C 267.600 155.895,268.116 155.037,268.747 154.314 C 269.378 153.591,270.390 152.010,270.996 150.800 C 271.602 149.590,272.976 147.666,274.049 146.524 C 275.122 145.382,276.000 144.177,276.000 143.846 C 276.000 143.515,276.488 143.009,277.083 142.722 C 278.123 142.221,281.710 136.835,283.596 132.943 C 284.117 131.870,284.747 131.200,285.388 131.039 C 285.932 130.902,286.570 130.430,286.805 129.990 C 287.041 129.550,288.396 128.050,289.817 126.657 C 291.238 125.264,292.400 123.921,292.400 123.672 C 292.400 123.424,292.932 122.946,293.581 122.610 C 294.798 121.980,295.593 120.133,295.598 117.924 C 295.599 117.093,296.467 116.001,299.408 113.130 C 301.503 111.085,303.416 108.859,303.661 108.183 C 303.905 107.507,304.594 106.674,305.191 106.331 C 305.951 105.895,306.413 105.171,306.727 103.924 C 306.974 102.942,307.722 101.454,308.388 100.615 C 309.055 99.776,309.600 98.935,309.600 98.745 C 309.600 98.555,309.876 98.400,310.213 98.400 C 310.551 98.400,311.199 97.770,311.653 97.000 C 312.659 95.295,312.752 95.289,314.225 96.826 L 315.400 98.053 315.600 240.412 C 315.791 376.400,315.832 382.803,316.514 383.486 C 317.181 384.153,318.569 384.200,337.403 384.200 L 357.578 384.200 358.489 383.289 L 359.400 382.378 359.511 206.689 C 359.579 99.182,359.477 29.779,359.248 27.854 C 358.815 24.221,357.498 22.436,353.800 20.465 L 351.800 19.400 335.348 19.400 L 318.897 19.400 315.863 21.479 C 314.194 22.623,312.151 23.686,311.322 23.841 C 310.404 24.013,309.363 24.608,308.660 25.362 C 308.025 26.043,306.912 27.230,306.187 28.000 C 304.723 29.555,303.605 31.944,303.591 33.549 C 303.584 34.297,303.140 34.926,302.050 35.732 C 301.208 36.354,300.031 37.636,299.435 38.579 C 298.839 39.522,297.917 40.492,297.387 40.733 C 296.856 40.975,296.308 41.629,296.168 42.186 C 296.028 42.744,295.677 43.200,295.387 43.200 C 293.606 43.200,291.495 46.333,290.988 49.729 C 290.763 51.237,290.498 51.735,289.769 52.012 C 289.257 52.206,288.558 52.908,288.215 53.571 C 287.872 54.234,287.222 54.974,286.769 55.216 C 286.317 55.459,285.284 56.405,284.473 57.319 C 282.975 59.008,281.758 60.215,280.675 61.081 C 280.345 61.346,279.873 62.502,279.626 63.651 C 279.380 64.800,278.865 65.960,278.481 66.228 C 278.097 66.497,277.379 67.527,276.885 68.516 C 276.390 69.506,275.314 70.815,274.493 71.425 C 272.763 72.710,271.235 74.401,271.214 75.053 C 271.206 75.301,270.571 75.985,269.802 76.572 C 268.750 77.374,268.339 78.041,268.143 79.265 C 267.959 80.419,267.279 81.606,265.806 83.346 C 264.663 84.696,263.514 86.203,263.252 86.696 C 262.991 87.189,262.263 87.857,261.635 88.182 C 261.007 88.506,260.379 89.228,260.239 89.786 C 260.099 90.344,259.753 90.800,259.470 90.800 C 259.188 90.800,258.028 91.835,256.895 93.100 C 255.761 94.365,254.282 95.954,253.607 96.631 C 252.694 97.547,252.288 98.431,252.018 100.089 C 251.641 102.404,248.850 105.911,245.877 107.806 C 245.259 108.200,244.381 109.260,243.926 110.161 C 243.471 111.062,242.569 112.250,241.922 112.800 C 241.059 113.534,240.683 114.278,240.508 115.594 C 240.304 117.131,239.915 117.732,237.793 119.794 C 236.430 121.117,235.193 122.587,235.044 123.060 C 234.894 123.533,234.346 124.027,233.826 124.158 C 233.247 124.303,232.718 124.861,232.461 125.597 C 232.231 126.257,231.611 126.994,231.084 127.234 C 229.865 127.790,227.600 131.496,227.600 132.934 C 227.600 133.682,227.060 134.585,225.900 135.779 C 224.965 136.741,222.463 139.299,220.341 141.464 C 217.257 144.609,216.385 145.760,216.000 147.193 C 215.735 148.180,214.997 149.581,214.359 150.308 C 213.720 151.035,212.938 152.253,212.620 153.015 C 212.301 153.777,211.873 154.400,211.668 154.400 C 211.135 154.400,207.638 158.064,207.369 158.904 C 207.245 159.292,206.619 159.880,205.977 160.212 C 205.336 160.543,204.701 161.255,204.566 161.793 C 204.431 162.331,203.972 162.882,203.547 163.017 C 201.827 163.563,200.039 166.115,199.408 168.926 L 198.942 171.000 195.920 171.116 L 192.898 171.232 192.062 169.816 C 191.603 169.037,191.076 168.400,190.890 168.400 C 190.267 168.400,188.044 164.848,187.583 163.116 C 187.094 161.280,186.188 160.000,185.377 160.000 C 185.103 160.000,184.699 159.486,184.480 158.858 C 184.261 158.230,182.358 156.008,180.250 153.921 C 176.766 150.471,176.377 149.934,175.962 147.999 C 175.627 146.434,175.096 145.444,173.953 144.255 C 173.099 143.366,172.400 142.523,172.400 142.381 C 172.400 141.997,169.688 139.276,168.587 138.555 C 168.061 138.210,167.526 137.598,167.398 137.193 C 167.270 136.789,166.543 136.091,165.782 135.643 C 165.022 135.194,164.400 134.616,164.400 134.358 C 164.400 133.810,160.824 127.662,160.326 127.354 C 160.140 127.239,159.732 126.534,159.420 125.787 C 159.061 124.927,158.489 124.337,157.861 124.180 C 157.237 124.023,156.773 123.548,156.610 122.897 C 156.363 121.914,150.206 115.469,149.190 115.130 C 148.925 115.042,148.552 113.988,148.363 112.789 C 147.910 109.924,147.284 108.480,146.367 108.190 C 145.957 108.059,145.228 107.401,144.748 106.727 C 144.268 106.053,143.078 104.767,142.104 103.869 C 141.130 102.971,139.991 101.566,139.573 100.747 C 139.155 99.928,138.484 99.154,138.082 99.026 C 137.611 98.877,137.168 98.084,136.841 96.811 C 136.306 94.722,134.266 91.785,132.809 91.005 C 132.334 90.750,131.729 90.109,131.464 89.579 C 131.200 89.049,130.547 88.398,130.013 88.132 C 129.479 87.865,128.713 87.007,128.311 86.224 C 127.910 85.441,127.429 84.800,127.244 84.800 C 126.743 84.800,124.874 81.836,124.552 80.532 C 124.205 79.129,122.525 76.400,122.007 76.400 C 121.797 76.400,120.991 75.410,120.217 74.200 C 119.443 72.990,118.667 72.000,118.492 72.000 C 117.944 72.000,112.420 66.398,111.816 65.230 C 111.500 64.619,110.799 63.829,110.258 63.475 C 109.580 63.031,109.187 62.299,108.991 61.116 C 108.600 58.752,108.218 58.113,105.749 55.692 C 104.567 54.532,103.600 53.398,103.600 53.171 C 103.600 52.945,102.996 52.507,102.257 52.198 C 101.023 51.682,100.894 51.460,100.656 49.434 C 100.302 46.427,99.806 45.502,97.710 43.940 C 96.721 43.203,95.755 42.192,95.563 41.693 C 95.371 41.194,94.758 40.612,94.200 40.400 C 93.642 40.188,93.004 39.536,92.782 38.952 C 92.560 38.368,90.943 36.542,89.189 34.893 C 85.483 31.409,84.593 30.091,84.230 27.546 C 83.946 25.560,83.339 24.824,81.329 24.029 C 80.630 23.753,79.747 23.184,79.367 22.764 C 78.988 22.344,77.580 21.420,76.238 20.711 L 73.800 19.421 58.200 19.366 C 49.620 19.336,41.160 19.421,39.399 19.555 M72.693 21.157 C 74.029 21.347,75.405 21.895,76.493 22.672 C 77.432 23.341,79.040 24.257,80.066 24.707 C 82.284 25.679,83.129 26.844,83.842 29.911 C 84.134 31.165,84.593 32.264,84.863 32.354 C 85.134 32.445,85.725 32.915,86.177 33.400 C 90.724 38.273,95.300 43.137,96.642 44.522 C 98.487 46.425,99.364 47.962,99.744 49.955 C 99.924 50.902,101.047 52.448,103.476 55.094 C 106.011 57.856,107.133 59.419,107.627 60.881 C 108.439 63.279,110.447 65.862,115.800 71.396 C 121.571 77.363,122.688 78.787,123.017 80.605 C 123.314 82.239,124.994 84.505,129.000 88.673 C 133.784 93.650,134.515 94.555,135.493 96.717 C 136.062 97.972,137.051 99.606,137.692 100.347 C 138.333 101.087,139.148 102.302,139.503 103.047 C 139.858 103.791,140.311 104.400,140.510 104.400 C 140.907 104.400,144.359 107.829,146.065 109.918 C 146.657 110.643,147.334 112.134,147.569 113.231 C 147.939 114.955,148.478 115.727,151.537 118.913 C 157.187 124.798,158.350 126.182,159.037 127.839 C 160.155 130.534,164.690 136.471,168.479 140.200 C 172.755 144.407,174.581 146.922,175.396 149.727 C 175.817 151.176,176.306 152.043,176.787 152.196 C 177.195 152.325,177.814 152.868,178.164 153.401 C 178.730 154.264,180.756 156.452,185.017 160.800 C 186.036 161.841,186.506 162.786,186.846 164.483 C 187.264 166.568,187.559 167.013,190.265 169.636 L 193.226 172.508 195.913 172.233 C 198.628 171.956,200.397 171.191,200.404 170.291 C 200.413 169.208,202.497 165.408,203.828 164.047 C 209.107 158.654,212.946 154.443,213.436 153.512 C 213.751 152.913,214.351 152.240,214.770 152.016 C 215.205 151.783,215.897 150.510,216.385 149.046 C 217.179 146.660,219.440 143.600,220.409 143.600 C 220.613 143.600,221.063 143.052,221.409 142.383 C 221.755 141.713,222.476 140.966,223.012 140.722 C 223.547 140.478,224.099 139.917,224.239 139.476 C 224.380 139.034,225.438 137.752,226.591 136.626 C 228.152 135.102,228.841 134.053,229.292 132.517 C 229.964 130.225,231.227 128.582,236.800 122.749 C 239.248 120.187,240.712 118.315,240.916 117.486 C 241.401 115.512,242.061 114.000,242.436 114.000 C 242.623 114.000,243.384 113.049,244.128 111.886 C 244.871 110.723,246.092 109.282,246.840 108.682 C 247.588 108.083,248.380 107.391,248.600 107.145 C 248.820 106.899,249.648 106.046,250.439 105.249 C 251.368 104.314,252.181 102.894,252.731 101.248 C 253.327 99.461,254.188 98.021,255.598 96.448 C 256.707 95.211,258.465 93.250,259.507 92.089 C 260.548 90.928,262.274 89.128,263.342 88.089 C 266.968 84.560,268.491 82.466,268.858 80.500 C 269.091 79.252,269.646 78.178,270.551 77.222 C 271.291 76.440,273.045 74.586,274.448 73.102 C 278.692 68.615,279.494 67.489,280.214 65.011 C 280.823 62.915,281.337 62.198,284.553 58.960 C 291.162 52.302,291.903 51.438,292.200 50.043 C 292.790 47.271,293.660 46.069,299.166 40.417 C 304.145 35.306,304.800 34.478,304.800 33.291 C 304.800 31.719,305.336 30.596,306.767 29.170 C 307.335 28.603,308.469 27.396,309.288 26.488 C 310.536 25.102,311.168 24.755,313.220 24.332 C 314.772 24.011,315.803 23.568,316.044 23.117 C 317.134 21.081,317.855 21.000,334.800 21.000 C 343.490 21.000,351.268 21.142,352.084 21.315 C 354.585 21.846,357.855 25.172,358.380 27.718 C 358.899 30.229,358.791 381.015,358.271 382.063 C 357.463 383.694,356.195 383.800,337.400 383.800 C 327.500 383.800,318.910 383.663,318.312 383.495 C 316.058 382.864,316.207 392.578,316.117 239.800 C 316.032 93.275,316.055 95.872,314.809 95.205 C 312.579 94.011,307.526 97.923,306.245 101.836 C 305.878 102.956,305.245 104.231,304.837 104.668 C 304.430 105.105,303.623 106.213,303.044 107.130 C 302.466 108.046,300.475 110.314,298.620 112.169 C 295.960 114.829,295.187 115.864,294.961 117.071 C 294.472 119.679,293.731 120.914,291.122 123.466 C 288.138 126.383,287.951 126.580,284.702 130.200 C 280.374 135.023,279.213 136.628,278.614 138.620 C 278.249 139.832,277.466 141.102,276.516 142.022 C 273.574 144.874,270.683 148.375,269.987 149.929 C 269.600 150.794,269.081 151.626,268.834 151.779 C 268.587 151.932,267.917 152.989,267.345 154.128 C 266.323 156.163,262.261 160.845,260.537 161.974 C 260.055 162.290,259.475 162.955,259.249 163.453 C 259.022 163.950,258.209 165.052,257.442 165.901 C 256.674 166.750,255.668 168.457,255.206 169.692 C 254.744 170.928,253.698 172.630,252.883 173.473 C 248.215 178.303,242.798 184.416,242.782 184.872 C 242.743 186.066,241.624 188.479,240.634 189.504 C 240.052 190.107,238.113 192.220,236.326 194.200 C 234.539 196.180,232.768 197.952,232.390 198.138 C 232.013 198.324,231.485 199.224,231.217 200.138 C 230.484 202.644,227.092 207.373,223.141 211.400 C 219.948 214.653,217.335 218.315,214.987 222.823 C 214.540 223.681,213.550 225.017,212.787 225.791 C 210.993 227.612,207.204 231.759,205.471 233.800 C 204.724 234.680,203.883 236.120,203.603 237.000 C 202.148 241.565,199.291 242.944,193.269 241.988 C 190.590 241.562,186.008 237.199,185.190 234.295 C 184.957 233.467,184.274 232.207,183.672 231.495 C 183.070 230.783,182.042 229.390,181.388 228.400 C 180.735 227.410,178.902 225.322,177.316 223.760 C 175.535 222.007,173.801 219.789,172.781 217.960 C 169.774 212.566,168.374 210.778,163.510 206.112 C 162.257 204.910,161.340 203.553,160.791 202.085 C 160.336 200.868,159.534 199.362,159.009 198.738 C 158.485 198.115,157.936 197.230,157.791 196.772 C 157.646 196.313,155.765 194.197,153.612 192.069 C 151.460 189.941,149.418 187.647,149.076 186.971 C 148.733 186.295,148.156 185.495,147.793 185.194 C 147.430 184.893,146.493 183.376,145.711 181.823 C 144.930 180.270,143.929 178.746,143.487 178.436 C 143.045 178.127,142.395 177.516,142.042 177.079 C 141.689 176.643,139.747 174.434,137.727 172.171 C 134.603 168.671,133.940 167.680,133.287 165.528 C 132.573 163.177,132.152 162.627,127.280 157.679 C 124.398 154.753,121.957 152.053,121.855 151.679 C 121.753 151.306,121.560 150.370,121.426 149.600 C 121.194 148.273,118.270 144.848,112.032 138.600 C 111.154 137.720,109.900 135.818,109.246 134.372 C 108.593 132.927,107.407 130.966,106.612 130.014 C 105.816 129.062,104.971 127.920,104.734 127.477 C 104.497 127.033,102.862 125.305,101.101 123.635 C 98.840 121.491,97.613 119.961,96.921 118.424 C 96.383 117.227,95.505 115.728,94.971 115.093 C 94.437 114.458,94.000 113.671,94.000 113.345 C 94.000 113.018,92.965 111.690,91.700 110.393 C 86.741 105.309,82.400 100.171,82.400 99.386 C 82.400 96.658,77.800 93.960,76.080 95.680 C 75.708 96.052,75.600 128.413,75.600 238.898 L 75.600 381.636 74.658 382.579 C 73.317 383.920,70.635 384.078,51.782 383.928 C 32.938 383.778,34.114 384.052,32.791 379.502 C 32.327 377.906,31.644 375.790,31.274 374.800 C 30.430 372.546,30.299 338.506,31.083 325.200 C 32.629 298.957,33.665 125.800,32.852 29.800 C 32.798 23.459,34.407 21.498,39.930 21.171 C 45.758 20.827,70.302 20.816,72.693 21.157 " stroke="none" fill="#e5f4f4" fill-rule="evenodd"></path></g></svg></svg></g></svg>